<svg xmlns="http://www.w3.org/2000/svg" xmlns:xlink="http://www.w3.org/1999/xlink" viewBox="0 0 30 15.92"><defs><style>.cls-1{fill:url(#Gradient_bez_nazwy_3);}.cls-2{fill:url(#Gradient_bez_nazwy_3-2);}.cls-3{fill:url(#Gradient_bez_nazwy_3-3);}.cls-4{fill:#313e52;}</style><linearGradient id="Gradient_bez_nazwy_3" x1="3.38" y1="391.14" x2="17.01" y2="404.77" gradientTransform="matrix(1, 0, 0, -1, 0, 405.92)" gradientUnits="userSpaceOnUse"><stop offset="0" stop-color="#202939"/><stop offset="1" stop-color="#273a52"/></linearGradient><linearGradient id="Gradient_bez_nazwy_3-2" x1="18.31" y1="392.69" x2="28.85" y2="403.23" xlink:href="#Gradient_bez_nazwy_3"/><linearGradient id="Gradient_bez_nazwy_3-3" x1="-1.07" y1="395.19" x2="4.44" y2="400.7" xlink:href="#Gradient_bez_nazwy_3"/></defs><title>Warstwa 2</title><g id="Warstwa_2" data-name="Warstwa 2"><g id="Warstwa_1-2" data-name="Warstwa 1"><g id="Warstwa_2-2" data-name="Warstwa 2"><g id="Warstwa_1-2-2" data-name="Warstwa 1-2"><path class="cls-1" d="M15.83,0H4.57a.08.08,0,0,0-.09.08.09.09,0,0,0,.07.09,8,8,0,0,1,0,15.58.08.08,0,0,0-.07.1.09.09,0,0,0,.09.07H15.83a.09.09,0,0,0,.09-.09h0V.09A.09.09,0,0,0,15.83,0Z"/><path class="cls-2" d="M26.13,0H21A.09.09,0,0,0,21,.09v6a.08.08,0,0,1-.08.08H16.28a.09.09,0,0,0-.09.09.11.11,0,0,0,0,.07l4.7,3.9a.09.09,0,0,1,0,.07v5.53a.09.09,0,0,0,.09.09h5.09a.08.08,0,0,0,.08-.09V.09A.08.08,0,0,0,26.13,0Z"/><path class="cls-3" d="M1.66,4.08H.09A.09.09,0,0,0,0,4.16H0v7.59a.09.09,0,0,0,.09.09H1.74A3.88,3.88,0,0,0,5.62,8,3.94,3.94,0,0,0,1.66,4.08Z"/><path class="cls-4" d="M27.24.17V.09A.09.09,0,0,1,27.33,0h1a.09.09,0,0,1,.09.09h0V.16a.09.09,0,0,1-.09.09H28v1a.09.09,0,0,1-.09.09h-.13a.09.09,0,0,1-.09-.09h0v-1h-.32A.1.1,0,0,1,27.24.17Z"/><path class="cls-4" d="M28.89,0A.09.09,0,0,1,29,.06l.3.88h0l.29-.88A.07.07,0,0,1,29.63,0h.28A.08.08,0,0,1,30,.08h0V1.28a.09.09,0,0,1-.09.09H29.8a.09.09,0,0,1-.08-.09h0V.4h0l-.31.91a.09.09,0,0,1-.08.06H29.2a.09.09,0,0,1-.08-.06l-.31-.9h0v.87a.09.09,0,0,1-.09.09h-.11a.09.09,0,0,1-.09-.09h0V.09A.09.09,0,0,1,28.61,0Z"/></g></g></g></g></svg>